<svg width="43" height="29" viewBox="0 0 43 29" fill="none" xmlns="http://www.w3.org/2000/svg">
<path d="M42.6759 25.2619C42.6759 27.2029 41.0879 28.791 39.1469 28.791H3.85599C1.91499 28.791 0.326904 27.2029 0.326904 25.2619V4.08741C0.326904 2.14641 1.91499 0.558326 3.85599 0.558326H39.1469C41.0879 0.558326 42.6759 2.14641 42.6759 4.08741V25.2619Z" fill="#F3F4F4"/>
<path d="M19.2667 21.7329C23.1648 21.7329 26.3248 18.5728 26.3248 14.6747C26.3248 10.7766 23.1648 7.6165 19.2667 7.6165C15.3685 7.6165 12.2085 10.7766 12.2085 14.6747C12.2085 18.5728 15.3685 21.7329 19.2667 21.7329Z" fill="#009FDA"/>
<path d="M18.678 7.61652C22.2071 7.61652 25.7355 10.7772 25.7355 14.6747C25.7355 18.5715 22.2071 21.7329 18.678 21.7329V7.61652Z" fill="#009FDA"/>
<path d="M18.678 21.7329V7.61652H23.7366C27.2657 7.61652 30.7941 10.7772 30.7941 14.6747C30.7941 18.5715 27.2657 21.7329 23.7366 21.7329H18.678Z" fill="#009FDA"/>
<path d="M19.2667 21.3362C22.9458 21.3362 25.9282 18.3537 25.9282 14.6747C25.9282 10.9956 22.9458 8.01319 19.2667 8.01319C15.5877 8.01319 12.6052 10.9956 12.6052 14.6747C12.6052 18.3537 15.5877 21.3362 19.2667 21.3362Z" fill="#F3F4F4"/>
<path d="M22.5162 14.6747C22.5162 12.7499 20.7954 11.14 19.3838 10.7158V18.6336C20.7954 18.2094 22.5162 16.6009 22.5162 14.6747Z" fill="#009FDA"/>
<path d="M14.134 14.6747C14.134 16.5994 15.8548 18.2094 17.2664 18.6336V10.7151C15.8548 11.14 14.134 12.7492 14.134 14.6747Z" fill="#009FDA"/>
<path opacity="0.08" d="M41.6391 1.59518C42.2786 2.23465 42.676 3.11693 42.676 4.08743V14.6747V25.2619C42.676 26.2324 42.2793 27.1147 41.6391 27.7542C40.999 28.3937 40.1174 28.791 39.1469 28.791H21.5014H3.85601C2.88552 28.791 2.00324 28.3944 1.36377 27.7542L41.6391 1.59518Z" fill="white"/>
<path d="M39.1469 1.26414C40.7039 1.26414 41.9701 2.53038 41.9701 4.08741V25.2619C41.9701 26.819 40.7039 28.0852 39.1469 28.0852H3.85599C2.29896 28.0852 1.03272 26.819 1.03272 25.2619V4.08741C1.03272 2.53038 2.29896 1.26414 3.85599 1.26414H39.1469ZM39.1469 0.558326H3.85599C1.91499 0.558326 0.326904 2.14641 0.326904 4.08741V25.2619C0.326904 27.2029 1.91499 28.791 3.85599 28.791H39.1469C41.0879 28.791 42.6759 27.2029 42.6759 25.2619V4.08741C42.6759 2.14641 41.0879 0.558326 39.1469 0.558326Z" fill="#F8F8F9"/>
</svg>
