<svg width="43" height="29" viewBox="0 0 43 29" fill="none" xmlns="http://www.w3.org/2000/svg">
<path d="M42.349 25.2619C42.349 27.2029 40.761 28.791 38.82 28.791H3.52909C1.58809 28.791 0 27.2029 0 25.2619V4.08739C0 2.1464 1.58809 0.558307 3.52909 0.558307H38.82C40.761 0.558307 42.349 2.1464 42.349 4.08739V25.2619Z" fill="#F3F4F4"/>
<path d="M0.705811 7.6165V4.08741C0.705811 2.14641 2.2939 0.558326 4.2349 0.558326H38.1141C40.0551 0.558326 41.6432 2.14641 41.6432 4.08741V7.6165" fill="#5565AF"/>
<path d="M41.6432 21.7329V25.262C41.6432 27.203 40.0551 28.0852 38.1141 28.0852H4.2349C2.2939 28.0852 0.705811 27.203 0.705811 25.262V21.7329" fill="#E6A124"/>
<path d="M12.272 17.0596C12.5586 16.2479 12.7597 15.7277 12.8783 15.4991L15.2605 10.6466H17.0031L12.8783 18.7084H11.0368L10.3367 10.6466H11.9636L12.2445 15.4991C12.2586 15.6642 12.2664 15.9098 12.2664 16.2324C12.2579 16.6114 12.2473 16.8874 12.2332 17.0596H12.272Z" fill="#5565AF"/>
<path d="M16.2754 18.7084L17.9962 10.6466H19.6781L17.9574 18.7084H16.2754Z" fill="#5565AF"/>
<path d="M24.8334 16.3263C24.8334 17.0956 24.5602 17.7019 24.0175 18.1487C23.4733 18.5955 22.7357 18.8185 21.8061 18.8185C20.993 18.8185 20.3395 18.6533 19.8433 18.3223V16.8112C20.5519 17.2078 21.2111 17.4069 21.8174 17.4069C22.2282 17.4069 22.5508 17.3299 22.7823 17.1725C23.0138 17.0166 23.1296 16.8034 23.1296 16.5302C23.1296 16.3728 23.1048 16.2338 23.0554 16.1138C23.006 15.9952 22.934 15.8837 22.843 15.78C22.7505 15.6769 22.5233 15.4906 22.1591 15.2174C21.6516 14.8525 21.2944 14.494 21.089 14.1361C20.8822 13.7797 20.7799 13.3957 20.7799 12.9835C20.7799 12.5092 20.8928 12.0864 21.1215 11.7123C21.3488 11.3397 21.6727 11.0496 22.0948 10.8414C22.5155 10.6338 22.999 10.5301 23.5481 10.5301C24.345 10.5301 25.0755 10.7122 25.7375 11.0757L25.1362 12.3603C24.5631 12.0885 24.0337 11.9523 23.5481 11.9523C23.2418 11.9523 22.9926 12.0349 22.7985 12.2008C22.603 12.3659 22.5063 12.5854 22.5063 12.8572C22.5063 13.0816 22.567 13.2778 22.6884 13.4444C22.8098 13.6117 23.0815 13.8333 23.5043 14.1086C23.9483 14.4029 24.2821 14.7276 24.5024 15.0819C24.7226 15.4383 24.8334 15.8519 24.8334 16.3263Z" fill="#5565AF"/>
<path d="M30.2428 16.7893H27.6348L26.6862 18.7084H24.9216L29.1452 10.6134H31.202L32.0123 18.7084H30.3748L30.2428 16.7893ZM30.1595 15.3558L30.0162 13.426C29.9788 12.9447 29.9612 12.4796 29.9612 12.0307V11.8323C29.7988 12.2734 29.5984 12.7407 29.3598 13.2327L28.323 15.3558H30.1595Z" fill="#5565AF"/>
<path opacity="0.04" d="M41.3122 1.59516C41.9517 2.23463 42.3491 3.11691 42.3491 4.08741V14.6747V25.2619C42.3491 26.2324 41.9524 27.1147 41.3122 27.7542C40.6721 28.3936 39.7905 28.791 38.82 28.791H21.1745H3.52911C2.55861 28.791 1.67634 28.3944 1.03687 27.7542L41.3122 1.59516Z" fill="white"/>
<path d="M38.82 1.26412C40.377 1.26412 41.6432 2.53036 41.6432 4.08739V25.2619C41.6432 26.819 40.377 28.0852 38.82 28.0852H3.52909C1.97205 28.0852 0.705817 26.819 0.705817 25.2619V4.08739C0.705817 2.53036 1.97205 1.26412 3.52909 1.26412H38.82ZM38.82 0.558307H3.52909C1.58809 0.558307 0 2.1464 0 4.08739V25.2619C0 27.2029 1.58809 28.791 3.52909 28.791H38.82C40.761 28.791 42.349 27.2029 42.349 25.2619V4.08739C42.349 2.1464 40.761 0.558307 38.82 0.558307Z" fill="#F8F8F9"/>
</svg>
