<svg width="44" height="29" viewBox="0 0 44 29" fill="none" xmlns="http://www.w3.org/2000/svg">
<path d="M43.1415 24.7036C43.1415 26.6446 41.5534 28.2327 39.6124 28.2327H4.32157C2.38057 28.2327 0.79248 26.6446 0.79248 24.7036V3.52909C0.79248 1.58809 2.38057 0 4.32157 0H39.6124C41.5534 0 43.1415 1.58809 43.1415 3.52909V24.7036Z" fill="#CDCDCD"/>
<path d="M43.6708 4.4403H2.02759V10.0868H43.6708V4.4403Z" fill="#424143"/>
<path d="M31.6719 12.9101H6.26245V18.5566H31.6719V12.9101Z" fill="white"/>
<path d="M28.8488 15.0276H8.38013V16.4392H28.8488V15.0276Z" fill="#424143"/>
<path d="M39.6124 0.705817C41.1695 0.705817 42.4357 1.97205 42.4357 3.52909V24.7036C42.4357 26.2606 41.1695 27.5269 39.6124 27.5269H4.32157C2.76453 27.5269 1.4983 26.2606 1.4983 24.7036V3.52909C1.4983 1.97205 2.76453 0.705817 4.32157 0.705817H39.6124ZM39.6124 0H4.32157C2.38057 0 0.79248 1.58809 0.79248 3.52909V24.7036C0.79248 26.6446 2.38057 28.2327 4.32157 28.2327H39.6124C41.5534 28.2327 43.1415 26.6446 43.1415 24.7036V3.52909C43.1415 1.58809 41.5534 0 39.6124 0Z" fill="#DFDEDD"/>
<path d="M39.4361 12.9101H33.7896V18.5566H39.4361V12.9101Z" fill="white"/>
<path d="M38.7303 15.0276H34.4954V16.4392H38.7303V15.0276Z" fill="#424143"/>
</svg>
