<svg width="43" height="29" viewBox="0 0 43 29" fill="none" xmlns="http://www.w3.org/2000/svg">
<path d="M42.7453 25.2619C42.7453 27.2029 41.1572 28.791 39.2162 28.791H3.92533C1.98433 28.791 0.39624 27.2029 0.39624 25.2619V4.08741C0.39624 2.14641 1.98433 0.558326 3.92533 0.558326H39.2162C41.1572 0.558326 42.7453 2.14641 42.7453 4.08741V25.2619Z" fill="#F3F4F4"/>
<path d="M12.3951 21.7329H6.74854V11.1456C6.74854 9.19612 9.03397 7.6165 10.9834 7.6165H15.2183V18.2038C15.2183 20.1532 14.3445 21.7329 12.3951 21.7329Z" fill="#5565AF"/>
<path d="M22.2764 21.7329H16.6299V11.1456C16.6299 9.19614 18.9153 7.61652 20.8648 7.61652H25.0997V18.2038C25.0997 20.1532 24.2259 21.7329 22.2764 21.7329Z" fill="#EA564B"/>
<path d="M32.158 21.7329H26.5115V11.1456C26.5115 9.19614 28.7969 7.61652 30.7464 7.61652H34.9813V18.2038C34.9813 20.1532 34.1075 21.7329 32.158 21.7329Z" fill="#99CD76"/>
<path opacity="0.08" d="M41.7085 1.59518C42.3479 2.23465 42.7453 3.11693 42.7453 4.08743V14.6747V25.2619C42.7453 26.2324 42.3486 27.1147 41.7085 27.7542C41.0683 28.3937 40.1867 28.791 39.2162 28.791H21.5708H3.92535C2.95485 28.791 2.07258 28.3944 1.43311 27.7542L41.7085 1.59518Z" fill="white"/>
<path d="M39.2162 1.26414C40.7732 1.26414 42.0395 2.53038 42.0395 4.08741V25.2619C42.0395 26.819 40.7732 28.0852 39.2162 28.0852H3.92533C2.36829 28.0852 1.10206 26.819 1.10206 25.2619V4.08741C1.10206 2.53038 2.36829 1.26414 3.92533 1.26414H39.2162ZM39.2162 0.558326H3.92533C1.98433 0.558326 0.39624 2.14641 0.39624 4.08741V25.2619C0.39624 27.2029 1.98433 28.791 3.92533 28.791H39.2162C41.1572 28.791 42.7453 27.2029 42.7453 25.2619V4.08741C42.7453 2.14641 41.1572 0.558326 39.2162 0.558326Z" fill="#F8F8F9"/>
</svg>
