<svg width="36" height="36" viewBox="0 0 36 36" fill="none" xmlns="http://www.w3.org/2000/svg">
<path d="M20.7404 15L20.3942 24M15.6058 24L15.2596 15M25.2277 11.7906C25.5696 11.8422 25.9104 11.8975 26.25 11.9563M25.2277 11.7906L24.1598 25.6726C24.0696 26.8448 23.0922 27.75 21.9164 27.75H14.0836C12.9079 27.75 11.9304 26.8448 11.8402 25.6726L10.7724 11.7906M25.2277 11.7906C24.0812 11.6174 22.9215 11.4849 21.75 11.3943M9.75002 11.9563C10.0896 11.8975 10.4304 11.8422 10.7724 11.7906M10.7724 11.7906C11.9188 11.6174 13.0785 11.4849 14.25 11.3943M21.75 11.3943V10.4782C21.75 9.29882 20.8394 8.31423 19.6606 8.27652C19.1092 8.25889 18.5557 8.25 18 8.25C17.4444 8.25 16.8908 8.25889 16.3394 8.27652C15.1607 8.31423 14.25 9.29882 14.25 10.4782V11.3943M21.75 11.3943C20.5126 11.2987 19.262 11.25 18 11.25C16.738 11.25 15.4875 11.2987 14.25 11.3943" stroke="#9CA3AF" stroke-width="1.5" stroke-linecap="round" stroke-linejoin="round"/>
</svg>
