<svg width="32" height="32" viewBox="0 0 32 32" fill="none" xmlns="http://www.w3.org/2000/svg">
<path d="M15.9 31.8C24.6813 31.8 31.8 24.6813 31.8 15.9C31.8 7.11867 24.6813 0 15.9 0C7.11867 0 0 7.11867 0 15.9C0 24.6813 7.11867 31.8 15.9 31.8Z" fill="#111C4E"/>
<path d="M21.2 16L20.7 15.9H20.5H11.1L10.7 15.8L12.7 25H20.2C22.8 25.1 25 23.1 25.2 20.5C25 18.2 23.4 16.3 21.2 16Z" fill="#78DED4"/>
<path d="M20.1 15.9C20.5 15.9 20.8 15.9 21.2 16L19.2 6.8H11.7C9.09995 6.7 6.89995 8.7 6.69995 11.3C6.79995 13.7 8.59995 15.6 11 15.8H20.1V15.9Z" fill="#FF7276"/>
</svg>
