<svg width="44" height="29" viewBox="0 0 44 29" fill="none" xmlns="http://www.w3.org/2000/svg">
<path d="M43.2106 25.2619C43.2106 27.2029 41.6225 28.791 39.6815 28.791H4.39066C2.44966 28.791 0.861572 27.2029 0.861572 25.2619V4.08741C0.861572 2.14641 2.44966 0.558326 4.39066 0.558326H39.6815C41.6225 0.558326 43.2106 2.14641 43.2106 4.08741V25.2619Z" fill="#FFF9F0"/>
<path d="M11.5441 14.6345C11.5441 15.3417 11.343 15.8831 10.9414 16.2593C10.5383 16.6348 9.95673 16.8232 9.19656 16.8232H7.97974V12.5283H9.32785C10.0294 12.5283 10.5736 12.714 10.9604 13.0838C11.35 13.4536 11.5441 13.971 11.5441 14.6345ZM10.5983 14.6585C10.5983 13.736 10.1904 13.2751 9.37726 13.2751H8.89167V16.0708H9.28268C10.16 16.0715 10.5983 15.6 10.5983 14.6585Z" fill="#414042"/>
<path d="M12.3142 16.8232V12.5283H13.2247V16.8232H12.3142Z" fill="#414042"/>
<path d="M16.8419 15.6304C16.8419 16.0193 16.7029 16.3235 16.4227 16.5473C16.1432 16.7703 15.7557 16.8832 15.2581 16.8832C14.8007 16.8832 14.3942 16.7964 14.0413 16.6249V15.7786C14.3314 15.9092 14.577 15.9988 14.7774 16.0532C14.9779 16.1054 15.1621 16.1315 15.3287 16.1315C15.5277 16.1315 15.6816 16.0927 15.7882 16.0172C15.8926 15.9417 15.9484 15.8266 15.9484 15.677C15.9484 15.593 15.9251 15.5182 15.8771 15.4525C15.8312 15.3862 15.7613 15.3227 15.6696 15.2627C15.5785 15.2027 15.3929 15.1046 15.1134 14.9719C14.8515 14.8484 14.6553 14.7291 14.5226 14.6161C14.3906 14.5032 14.2869 14.3712 14.2085 14.2195C14.1302 14.0677 14.0914 13.8913 14.0914 13.6901C14.0914 13.3104 14.2198 13.0118 14.4774 12.7944C14.7358 12.5763 15.0908 12.4683 15.5461 12.4683C15.7691 12.4683 15.9822 12.4945 16.1848 12.5474C16.3874 12.5996 16.5998 12.6751 16.8208 12.7704L16.5272 13.4784C16.2978 13.3845 16.1072 13.3174 15.9576 13.2814C15.8072 13.2447 15.6597 13.2257 15.5157 13.2257C15.3428 13.2257 15.2101 13.2652 15.119 13.3464C15.0266 13.4268 14.9807 13.5313 14.9807 13.6605C14.9807 13.7409 14.9991 13.8101 15.0365 13.8708C15.0739 13.9308 15.1332 13.988 15.2143 14.0437C15.2955 14.0995 15.4889 14.1997 15.7917 14.3451C16.1926 14.5371 16.4679 14.7298 16.6175 14.9225C16.7671 15.1138 16.8419 15.3502 16.8419 15.6304Z" fill="#414042"/>
<path d="M19.4443 13.2243C19.1013 13.2243 18.8366 13.3542 18.6482 13.6104C18.459 13.868 18.3665 14.228 18.3665 14.6875C18.3665 15.6445 18.7258 16.1238 19.4443 16.1238C19.7464 16.1238 20.1099 16.0504 20.5405 15.8979V16.6616C20.1875 16.8091 19.7937 16.8819 19.3589 16.8819C18.7343 16.8819 18.2564 16.6913 17.9254 16.3123C17.5944 15.9339 17.4292 15.3897 17.4292 14.6804C17.4292 14.2336 17.5111 13.8426 17.6741 13.5073C17.8358 13.17 18.0701 12.9137 18.3743 12.7345C18.6799 12.5552 19.0363 12.4655 19.4457 12.4655C19.8629 12.4655 20.2828 12.5665 20.7028 12.7683L20.4092 13.5087C20.2475 13.4325 20.0873 13.3662 19.9236 13.309C19.7605 13.2518 19.601 13.2243 19.4443 13.2243Z" fill="#414042"/>
<path d="M27.8302 12.5283H28.7499L27.291 16.8232H26.2979L24.8411 12.5283H25.7615L26.5696 15.0841C26.6141 15.2358 26.6621 15.4102 26.7094 15.612C26.7559 15.8132 26.7863 15.9508 26.799 16.0299C26.8202 15.8499 26.8936 15.5365 27.0192 15.0841L27.8302 12.5283Z" fill="#414042"/>
<path d="M31.7637 16.8232H29.2898V12.5283H31.7637V13.2751H30.2003V14.218H31.6557V14.9641H30.2003V16.0708H31.7637V16.8232Z" fill="#414042"/>
<path d="M33.5707 15.1751V16.8232H32.6602V12.5283H33.9116C34.4953 12.5283 34.9265 12.6342 35.2075 12.8474C35.487 13.0598 35.6274 13.3817 35.6274 13.815C35.6274 14.067 35.5575 14.2929 35.4192 14.4891C35.2801 14.686 35.0832 14.8406 34.8291 14.9521C35.475 15.9162 35.8956 16.5409 36.0918 16.8225H35.0811L34.0555 15.1744L33.5707 15.1751ZM33.5707 14.4347H33.865C34.1523 14.4347 34.3654 14.3867 34.5023 14.2915C34.6386 14.1948 34.7077 14.0437 34.7077 13.8383C34.7077 13.6343 34.6371 13.4904 34.4974 13.4035C34.3576 13.3167 34.141 13.2744 33.8473 13.2744H33.5692L33.5707 14.4347Z" fill="#414042"/>
<path d="M22.7884 16.8239C23.9746 16.8239 24.9362 15.8623 24.9362 14.6761C24.9362 13.4899 23.9746 12.5283 22.7884 12.5283C21.6022 12.5283 20.6406 13.4899 20.6406 14.6761C20.6406 15.8623 21.6022 16.8239 22.7884 16.8239Z" fill="#E6A124"/>
<path d="M43.2106 19.9683V25.2619C43.2106 25.7475 43.1111 26.2106 42.9319 26.6319C42.7519 27.0533 42.4935 27.4344 42.1738 27.7542C41.8541 28.0739 41.4736 28.3322 41.0516 28.5122C40.6288 28.6915 40.1665 28.791 39.6816 28.791H23.831H7.98047L43.2106 19.9683Z" fill="#E6A124"/>
<path opacity="0.08" d="M42.1738 1.59518C42.8133 2.23465 43.2106 3.11693 43.2106 4.08743V14.6747V25.2619C43.2106 26.2324 42.814 27.1147 42.1738 27.7542C41.5336 28.3937 40.6521 28.791 39.6816 28.791H22.0361H4.39068C3.42018 28.791 2.53791 28.3944 1.89844 27.7542L42.1738 1.59518Z" fill="white"/>
<path d="M39.6815 1.26414C41.2386 1.26414 42.5048 2.53038 42.5048 4.08741V25.2619C42.5048 26.819 41.2386 28.0852 39.6815 28.0852H4.39066C2.83363 28.0852 1.56739 26.819 1.56739 25.2619V4.08741C1.56739 2.53038 2.83363 1.26414 4.39066 1.26414H39.6815ZM39.6815 0.558326H4.39066C2.44966 0.558326 0.861572 2.14641 0.861572 4.08741V25.2619C0.861572 27.2029 2.44966 28.791 4.39066 28.791H39.6815C41.6225 28.791 43.2106 27.2029 43.2106 25.2619V4.08741C43.2106 2.14641 41.6225 0.558326 39.6815 0.558326Z" fill="#F7F5F2"/>
</svg>
