<svg width="44" height="29" viewBox="0 0 44 29" fill="none" xmlns="http://www.w3.org/2000/svg">
<path d="M43.2797 25.2619C43.2797 27.2029 41.6916 28.791 39.7506 28.791H4.45975C2.51875 28.791 0.930664 27.2029 0.930664 25.2619V4.08741C0.930664 2.14641 2.51875 0.558326 4.45975 0.558326H39.7506C41.6916 0.558326 43.2797 2.14641 43.2797 4.08741V25.2619Z" fill="#5EC1EC"/>
<path d="M42.2429 1.59518C42.8824 2.23465 43.2797 3.11693 43.2797 4.08743V14.6747V25.2619C43.2797 26.2324 42.8831 27.1147 42.2429 27.7542C41.6027 28.3937 40.7211 28.791 39.7506 28.791H22.1052H4.45977C3.48928 28.791 2.607 28.3944 1.96753 27.7542L42.2429 1.59518Z" fill="#5BBBE6"/>
<path d="M13.3213 18.1487L12.9988 16.9206H10.8707L10.539 18.1487H8.59448L10.7317 11.5719H13.0926L15.256 18.1487H13.3213ZM12.6318 15.4687L12.3494 14.3937C12.2831 14.1552 12.204 13.8467 12.1095 13.467C12.0156 13.0873 11.9535 12.8155 11.9231 12.6518C11.897 12.8043 11.8434 13.0548 11.7643 13.4042C11.6853 13.7536 11.5095 14.4425 11.2378 15.4694L12.6318 15.4687Z" fill="white"/>
<path d="M18.819 18.1487L17.4793 13.4304H17.4391C17.5019 14.2336 17.533 14.8575 17.533 15.3036V18.148H15.9653V11.5974H18.3214L19.6885 16.2487H19.7245L21.0634 11.5974H23.4251V18.148H21.7982V15.2761C21.7982 15.1271 21.801 14.962 21.8053 14.7792C21.8095 14.5964 21.83 14.1503 21.866 13.4395H21.8257L20.5037 18.1487H18.819V18.1487Z" fill="white"/>
<path d="M28.5416 18.1488H24.6526V11.5981H28.5416V13.0189H26.4214V14.0494H28.3842V15.4695H26.4214V16.7061H28.5416V18.1488Z" fill="white"/>
<path d="M35.5892 18.1488H33.5424L32.2641 16.1019L31.0014 18.1488H28.9983L31.1708 14.7976L29.1275 11.5981H31.0903L32.2733 13.6231L33.4104 11.5981H35.4311L33.3567 14.9359L35.5892 18.1488Z" fill="white"/>
<path d="M13.3213 18.1487L12.9988 16.9206H10.8707L10.539 18.1487H8.59448L10.7317 11.5719H13.0926L15.256 18.1487H13.3213ZM12.6318 15.4687L12.3494 14.3937C12.2831 14.1552 12.204 13.8467 12.1095 13.467C12.0156 13.0873 11.9535 12.8155 11.9231 12.6518C11.897 12.8043 11.8434 13.0548 11.7643 13.4042C11.6853 13.7536 11.5095 14.4425 11.2378 15.4694L12.6318 15.4687Z" fill="white"/>
<path d="M18.819 18.1487L17.4793 13.4304H17.4391C17.5019 14.2336 17.533 14.8575 17.533 15.3036V18.148H15.9653V11.5974H18.3214L19.6885 16.2487H19.7245L21.0634 11.5974H23.4251V18.148H21.7982V15.2761C21.7982 15.1271 21.801 14.962 21.8053 14.7792C21.8095 14.5964 21.83 14.1503 21.866 13.4395H21.8257L20.5037 18.1487H18.819V18.1487Z" fill="white"/>
<path d="M28.5416 18.1488H24.6526V11.5981H28.5416V13.0189H26.4214V14.0494H28.3842V15.4695H26.4214V16.7061H28.5416V18.1488Z" fill="white"/>
<path d="M35.5892 18.1488H33.5424L32.2641 16.1019L31.0014 18.1488H28.9983L31.1708 14.7976L29.1275 11.5981H31.0903L32.2733 13.6231L33.4104 11.5981H35.4311L33.3567 14.9359L35.5892 18.1488Z" fill="white"/>
<path d="M39.7506 1.26414C41.3077 1.26414 42.5739 2.53038 42.5739 4.08741V25.2619C42.5739 26.819 41.3077 28.0852 39.7506 28.0852H4.45975C2.90272 28.0852 1.63648 26.819 1.63648 25.2619V4.08741C1.63648 2.53038 2.90272 1.26414 4.45975 1.26414H39.7506ZM39.7506 0.558326H4.45975C2.51875 0.558326 0.930664 2.14641 0.930664 4.08741V25.2619C0.930664 27.2029 2.51875 28.791 4.45975 28.791H39.7506C41.6916 28.791 43.2797 27.2029 43.2797 25.2619V4.08741C43.2797 2.14641 41.6916 0.558326 39.7506 0.558326Z" fill="#9BCEE0"/>
</svg>
