<svg width="43" height="29" viewBox="0 0 43 29" fill="none" xmlns="http://www.w3.org/2000/svg">
<path d="M42.8144 25.2619C42.8144 27.2029 41.2263 28.791 39.2853 28.791H3.99442C2.05342 28.791 0.465332 27.2029 0.465332 25.2619V4.08741C0.465332 2.14641 2.05342 0.558326 3.99442 0.558326H39.2853C41.2263 0.558326 42.8144 2.14641 42.8144 4.08741V25.2619Z" fill="#5565AF"/>
<path opacity="0.04" d="M41.7776 1.59518C42.417 2.23465 42.8144 3.11693 42.8144 4.08743V14.6747V25.2619C42.8144 26.2324 42.4177 27.1147 41.7776 27.7542C41.1374 28.3937 40.2558 28.791 39.2853 28.791H21.6399H3.99444C3.02394 28.791 2.14167 28.3944 1.5022 27.7542L41.7776 1.59518Z" fill="white"/>
<path d="M21.6399 10.0163C20.3461 8.54818 18.4567 7.6165 16.3463 7.6165C12.4487 7.6165 9.28809 10.7764 9.28809 14.6747C9.28809 18.5715 12.4487 21.7329 16.3463 21.7329C18.4567 21.7329 20.3461 20.8012 21.6399 19.3324C20.5445 18.0887 19.8753 16.4632 19.8753 14.6747C19.8753 12.8861 20.5445 11.2599 21.6399 10.0163Z" fill="#EA564B"/>
<path d="M21.6398 10.0163C20.5444 11.26 19.8752 12.8869 19.8752 14.6747C19.8752 16.4626 20.5444 18.0888 21.6398 19.3324C22.7352 18.0888 23.4043 16.4633 23.4043 14.6747C23.4043 12.8862 22.7352 11.26 21.6398 10.0163Z" fill="#EA564B"/>
<path d="M26.9336 7.6165C24.8232 7.6165 22.9337 8.54818 21.6399 10.0163C21.3343 10.3635 21.0668 10.7433 20.8325 11.1456H22.4474C22.7043 11.5867 22.904 12.0624 23.0621 12.5572H20.2078C20.0645 13.0111 19.9608 13.4811 19.9121 13.9689H23.3558C23.3798 14.2018 23.4038 14.4347 23.4038 14.6747C23.4038 14.9132 23.3896 15.1483 23.3664 15.3805H19.9114C19.9601 15.8682 20.0638 16.3383 20.2071 16.7921H23.0699C22.9125 17.289 22.7015 17.7605 22.4446 18.2038H20.8318C21.0654 18.6047 21.3336 18.9851 21.6392 19.3324C22.933 20.8012 24.8225 21.7329 26.9328 21.7329C30.8304 21.7329 33.991 18.5715 33.991 14.6747C33.9917 10.7764 30.8311 7.6165 26.9336 7.6165Z" fill="#E9D419"/>
<path d="M39.2853 1.26414C40.8423 1.26414 42.1086 2.53038 42.1086 4.08741V25.2619C42.1086 26.819 40.8423 28.0852 39.2853 28.0852H3.99442C2.43739 28.0852 1.17115 26.819 1.17115 25.2619V4.08741C1.17115 2.53038 2.43739 1.26414 3.99442 1.26414H39.2853ZM39.2853 0.558326H3.99442C2.05342 0.558326 0.465332 2.14641 0.465332 4.08741V25.2619C0.465332 27.2029 2.05342 28.791 3.99442 28.791H39.2853C41.2263 28.791 42.8144 27.2029 42.8144 25.2619V4.08741C42.8144 2.14641 41.2263 0.558326 39.2853 0.558326Z" fill="#7684B7"/>
</svg>
