<svg width="36" height="36" viewBox="0 0 36 36" fill="none" xmlns="http://www.w3.org/2000/svg">
<path d="M22.8617 10.4867L24.5492 8.79917C25.2814 8.06694 26.4686 8.06694 27.2008 8.79917C27.9331 9.53141 27.9331 10.7186 27.2008 11.4508L16.5822 22.0695C16.0535 22.5981 15.4014 22.9868 14.6849 23.2002L12 24L12.7998 21.3151C13.0132 20.5986 13.4018 19.9465 13.9305 19.4178L22.8617 10.4867ZM22.8617 10.4867L25.5 13.125M24 20V24.75C24 25.9926 22.9926 27 21.75 27H11.25C10.0074 27 9 25.9926 9 24.75V14.25C9 13.0074 10.0074 12 11.25 12H16" stroke="#9CA3AF" stroke-width="1.5" stroke-linecap="round" stroke-linejoin="round"/>
</svg>
