<svg width="115" height="33" viewBox="0 0 115 33" fill="none" xmlns="http://www.w3.org/2000/svg">
<path d="M50.8 17.1C50.3 16.6 49.8 16.2 49.2 15.9C48.4 15.5 47.6 15.1 46.8 14.8C46.3 14.6 45.8 14.4 45.4 14.2C45.1 14 44.7 13.9 44.4 13.6C44.2 13.4 44 13.2 43.9 13C43.8 12.8 43.8 12.5 43.8 12.2C43.8 11.7 44.1 11.2 44.6 10.9C45.2 10.6 45.9 10.5 46.6 10.5C47.4 10.5 48.2 10.6 49 10.7C49.6 10.8 50.1 11 50.7 11.3L51.4 8.1C50.7 7.9 50 7.7 49.3 7.6C48.4 7.4 47.4 7.3 46.4 7.3C44.7 7.2 43 7.7 41.6 8.7C40.4 9.6 39.8 11 39.9 12.4C39.9 13.1 40 13.8 40.3 14.5C40.5 15 40.9 15.5 41.3 15.9C41.7 16.3 42.3 16.7 42.8 17C43.4 17.3 44.1 17.6 44.8 17.8C45.7 18.1 46.6 18.5 47.4 19C47.9 19.3 48.2 19.9 48.2 20.4C48.2 20.9 48 21.5 47.5 21.7C46.8 22 46 22.1 45.2 22.1C44.2 22.1 43.3 22 42.3 21.8C41.6 21.6 40.9 21.4 40.2 21.1L39.5 24.4C40.1 24.6 40.8 24.8 41.4 25C42.6 25.3 43.8 25.4 45.1 25.4C46.9 25.5 48.8 25.1 50.3 24.1C51.5 23.3 52.3 21.9 52.2 20.4C52.2 19.7 52.1 19.1 51.9 18.4C51.5 18 51.2 17.5 50.8 17.1Z" fill="#111C4E"/>
<path d="M72.5 19.3C72.5 21.3 71.5001 22.4 69.8001 22.4C68.1001 22.4 67.2 21.2 67.2 19.3V7.7H63.2001V19.3C63.2001 21.2 62.2 22.4 60.6 22.4C59 22.4 57.9001 21.3 57.9001 19.3V7.7H53.8V19.3C53.8 23.2 56.3 25.6 60.3 25.6C62.2 25.6 64 24.8 65.2 23.3C66.3 24.9 68.2 25.7 70.1 25.6C74.1 25.6 76.6 23.2 76.6 19.3V7.7H72.6V19.3H72.5Z" fill="#111C4E"/>
<path d="M106.4 7.4H98.2V32.4H102.2V11.1H106C108.9 11.1 111 13.3 111 16.5C111 19.7 108.9 22 105.9 22H103.5L104.3 25.6H105.8C110.7 25.7 114.8 21.8 115 16.9C115 16.7 115 16.5 115 16.3C115 11.1 111.4 7.4 106.4 7.4Z" fill="#111C4E"/>
<path d="M91.4 20.2C90.1 21.1 88.7 21.5 87.3 21.5H87.2C85.9 21.5 84.7 21 83.8 20C83.1 19 82.7 17.7 82.7 16.5C82.7 13.3 84.8 11 87.8 11H90.2L89.4 7.4H87.9C83 7.3 78.9 11.1 78.7 16C78.7 16.2 78.7 16.4 78.7 16.6C78.7 21.7 82.3 25.5 87.3 25.5C88.8 25.5 90.2 25.1 91.5 24.3V25.3H95.4V7.5H91.4V20.2Z" fill="#111C4E"/>
<path d="M16.7 32.4C25.4814 32.4 32.6 25.2813 32.6 16.5C32.6 7.71867 25.4814 0.599998 16.7 0.599998C7.91872 0.599998 0.800049 7.71867 0.800049 16.5C0.800049 25.2813 7.91872 32.4 16.7 32.4Z" fill="#111C4E"/>
<path d="M22 16.6L21.5 16.5H21.3H11.9L11.5 16.4L13.5 25.6H21C23.6 25.7 25.8 23.7 26 21.1C25.8 18.8 24.2 16.9 22 16.6Z" fill="#78DED4"/>
<path d="M20.9 16.5C21.3 16.5 21.6 16.5 22 16.6L20 7.4H12.5C9.9 7.3 7.7 9.3 7.5 11.9C7.6 14.3 9.4 16.2 11.8 16.4H20.9V16.5Z" fill="#FF7276"/>
</svg>
